<svg id="visual" viewBox="0 0 960 540" width="960" height="540" xmlns="http://www.w3.org/2000/svg" xmlns:xlink="http://www.w3.org/1999/xlink" version="1.1"><g transform="translate(473.304918371279 289.3547918472336)"><path d="M69.5 -89.5C95.6 -60.9 126.1 -44.3 154.2 -8.8C182.3 26.6 208.1 80.8 188.9 104.5C169.8 128.2 105.8 121.4 58.2 122.4C10.7 123.4 -20.3 132.2 -54.5 128.8C-88.8 125.5 -126.2 110 -151.2 80.6C-176.1 51.2 -188.5 7.9 -178.9 -28.9C-169.3 -65.7 -137.7 -96.1 -104.2 -123.3C-70.7 -150.6 -35.4 -174.8 -6.8 -166.7C21.7 -158.5 43.4 -118 69.5 -89.5" fill="#176B87"></path></g></svg>