<svg id="visual" viewBox="0 0 960 540" width="960" height="540" xmlns="http://www.w3.org/2000/svg" xmlns:xlink="http://www.w3.org/1999/xlink" version="1.1"><g transform="translate(488.4673280139411 248.92798875075965)"><path d="M57.3 -73.6C74.3 -66.6 88 -49.8 105.2 -27.1C122.4 -4.3 143 24.4 152.5 66.3C162 108.2 160.3 163.3 133.1 183.3C105.8 203.3 52.9 188.1 16.9 164.8C-19 141.5 -38 110 -48.7 84.6C-59.4 59.3 -61.8 40.1 -86.7 15.8C-111.6 -8.4 -159 -37.8 -171.3 -72.9C-183.6 -108.1 -160.9 -149.1 -126.5 -150.4C-92.1 -151.7 -46 -113.4 -12.9 -95.6C20.2 -77.8 40.4 -80.6 57.3 -73.6" fill="#176B87"></path></g></svg>