<svg id="visual" viewBox="0 0 960 300" width="960" height="300" xmlns="http://www.w3.org/2000/svg" xmlns:xlink="http://www.w3.org/1999/xlink" version="1.1"><path d="M0 232L22.8 230C45.7 228 91.3 224 137 225.2C182.7 226.3 228.3 232.7 274 239.5C319.7 246.3 365.3 253.7 411.2 246.5C457 239.3 503 217.7 548.8 210.2C594.7 202.7 640.3 209.3 686 215.5C731.7 221.7 777.3 227.3 823 233.3C868.7 239.3 914.3 245.7 937.2 248.8L960 252L960 301L937.2 301C914.3 301 868.7 301 823 301C777.3 301 731.7 301 686 301C640.3 301 594.7 301 548.8 301C503 301 457 301 411.2 301C365.3 301 319.7 301 274 301C228.3 301 182.7 301 137 301C91.3 301 45.7 301 22.8 301L0 301Z" fill="#161A30" stroke-linecap="round" stroke-linejoin="miter"></path></svg>