<svg id="visual" viewBox="0 0 960 300" width="960" height="300" xmlns="http://www.w3.org/2000/svg" xmlns:xlink="http://www.w3.org/1999/xlink" version="1.1"><path d="M0 196L22.8 200C45.7 204 91.3 212 137 208.5C182.7 205 228.3 190 274 190.2C319.7 190.3 365.3 205.7 411.2 211.2C457 216.7 503 212.3 548.8 206.3C594.7 200.3 640.3 192.7 686 193C731.7 193.3 777.3 201.7 823 203C868.7 204.3 914.3 198.7 937.2 195.8L960 193L960 301L937.2 301C914.3 301 868.7 301 823 301C777.3 301 731.7 301 686 301C640.3 301 594.7 301 548.8 301C503 301 457 301 411.2 301C365.3 301 319.7 301 274 301C228.3 301 182.7 301 137 301C91.3 301 45.7 301 22.8 301L0 301Z" fill="#b6bbc4"></path><path d="M0 232L22.8 230C45.7 228 91.3 224 137 224.8C182.7 225.7 228.3 231.3 274 233.5C319.7 235.7 365.3 234.3 411.2 230.7C457 227 503 221 548.8 216.2C594.7 211.3 640.3 207.7 686 211.7C731.7 215.7 777.3 227.3 823 229C868.7 230.7 914.3 222.3 937.2 218.2L960 214L960 301L937.2 301C914.3 301 868.7 301 823 301C777.3 301 731.7 301 686 301C640.3 301 594.7 301 548.8 301C503 301 457 301 411.2 301C365.3 301 319.7 301 274 301C228.3 301 182.7 301 137 301C91.3 301 45.7 301 22.8 301L0 301Z" fill="#898f9c"></path><path d="M0 218L22.8 222.2C45.7 226.3 91.3 234.7 137 235.2C182.7 235.7 228.3 228.3 274 229.2C319.7 230 365.3 239 411.2 239.5C457 240 503 232 548.8 229C594.7 226 640.3 228 686 228.7C731.7 229.3 777.3 228.7 823 229.5C868.7 230.3 914.3 232.7 937.2 233.8L960 235L960 301L937.2 301C914.3 301 868.7 301 823 301C777.3 301 731.7 301 686 301C640.3 301 594.7 301 548.8 301C503 301 457 301 411.2 301C365.3 301 319.7 301 274 301C228.3 301 182.7 301 137 301C91.3 301 45.7 301 22.8 301L0 301Z" fill="#5f6576"></path><path d="M0 260L22.8 259.8C45.7 259.7 91.3 259.3 137 256.8C182.7 254.3 228.3 249.7 274 251.3C319.7 253 365.3 261 411.2 262.8C457 264.7 503 260.3 548.8 255.7C594.7 251 640.3 246 686 246.7C731.7 247.3 777.3 253.7 823 258.2C868.7 262.7 914.3 265.3 937.2 266.7L960 268L960 301L937.2 301C914.3 301 868.7 301 823 301C777.3 301 731.7 301 686 301C640.3 301 594.7 301 548.8 301C503 301 457 301 411.2 301C365.3 301 319.7 301 274 301C228.3 301 182.7 301 137 301C91.3 301 45.7 301 22.8 301L0 301Z" fill="#393e52"></path><path d="M0 281L22.8 281.3C45.7 281.7 91.3 282.3 137 279.8C182.7 277.3 228.3 271.7 274 270.5C319.7 269.3 365.3 272.7 411.2 272.7C457 272.7 503 269.3 548.8 268.7C594.7 268 640.3 270 686 270.7C731.7 271.3 777.3 270.7 823 272C868.7 273.3 914.3 276.7 937.2 278.3L960 280L960 301L937.2 301C914.3 301 868.7 301 823 301C777.3 301 731.7 301 686 301C640.3 301 594.7 301 548.8 301C503 301 457 301 411.2 301C365.3 301 319.7 301 274 301C228.3 301 182.7 301 137 301C91.3 301 45.7 301 22.8 301L0 301Z" fill="#161a30"></path></svg>